<svg height="512pt" viewBox="0 0 512 512" width="512pt" xmlns="http://www.w3.org/2000/svg"><path d="m416 512h-320c-53.023438 0-96-42.976562-96-96v-320c0-53.023438 42.976562-96 96-96h320c53.023438 0 96 42.976562 96 96v320c0 53.023438-42.976562 96-96 96zm0 0" fill="#fff9dd"/><path d="m226.335938 332c-2.734376 0-5.457032-1.039062-7.535157-3.121094l-65.328125-65.328125c-4.160156-4.160156-4.160156-10.910156 0-15.085937 4.160156-4.175782 10.910156-4.160156 15.085938 0l57.792968 57.792968 123.121094-123.121093c4.160156-4.160157 10.910156-4.160157 15.085938 0 4.175781 4.160156 4.160156 10.910156 0 15.085937l-130.671875 130.671875c-2.09375 2.066407-4.832031 3.105469-7.550781 3.105469zm0 0" fill="#ffd200"/></svg>