<svg height="512pt" viewBox="0 0 512 512" width="512pt" xmlns="http://www.w3.org/2000/svg"><path d="m416 512h-320c-53.023438 0-96-42.976562-96-96v-320c0-53.023438 42.976562-96 96-96h320c53.023438 0 96 42.976562 96 96v320c0 53.023438-42.976562 96-96 96zm0 0" fill="#ffe6e2"/><path d="m281.296875 315.953125c-6.050781 6.046875-14.082031 9.375-22.625 9.375s-16.574219-3.328125-22.625-9.375l-45.328125-45.328125c-6.046875-6.050781-9.375-14.082031-9.375-22.625s3.328125-16.574219 9.375-22.625c6.050781-6.046875 14.082031-9.375 22.625-9.375s16.578125 3.328125 22.625 9.375l22.703125 22.703125 71.566406-71.566406c-1.023437-4.816407-5.101562-8.511719-10.238281-8.511719h-160c-17.648438 0-32 14.351562-32 32v160c0 17.648438 14.351562 32 32 32h160c17.648438 0 32-14.351562 32-32v-114.753906zm0 0" fill="#fc573b"/><path d="m258.671875 304c-2.734375 0-5.457031-1.039062-7.535156-3.121094l-45.328125-45.328125c-4.160156-4.160156-4.160156-10.910156 0-15.085937 4.160156-4.175782 10.910156-4.160156 15.085937 0l37.792969 37.792968 107.121094-107.121093c4.160156-4.160157 10.910156-4.160157 15.085937 0 4.175781 4.160156 4.160157 10.910156 0 15.085937l-114.671875 114.671875c-2.09375 2.066407-4.832031 3.105469-7.550781 3.105469zm0 0" fill="#fd907e"/></svg>