<svg height="512pt" viewBox="0 0 512 512" width="512pt" xmlns="http://www.w3.org/2000/svg"><path d="m416 512h-320c-53.023438 0-96-42.976562-96-96v-320c0-53.023438 42.976562-96 96-96h320c53.023438 0 96 42.976562 96 96v320c0 53.023438-42.976562 96-96 96zm0 0" fill="#ffe6e2"/><path d="m376.257812 240.929688-47.027343-77.328126c-5.277344-8.691406-14.878907-14.097656-25.054688-14.097656h-96.015625c-10.175781 0-19.777344 5.40625-25.054687 14.097656l-47.027344 77.328126c-5.710937 9.40625-5.710937 21.070312 0 30.476562l47.027344 77.328125c5.277343 8.691406 14.878906 14.097656 25.054687 14.097656h96.015625c10.175781 0 19.777344-5.40625 25.054688-14.097656l47.027343-77.328125c5.726563-9.40625 5.726563-21.085938 0-30.476562zm-73.058593 47.183593c4.160156 4.160157 4.160156 10.910157 0 15.085938-2.078125 2.082031-4.816407 3.121093-7.535157 3.121093s-5.457031-1.039062-7.535156-3.121093l-32.066406-32.0625-32.0625 32.0625c-2.078125 2.082031-4.816406 3.121093-7.535156 3.121093-2.738282 0-5.457032-1.039062-7.535156-3.121093-4.160157-4.160157-4.160157-10.910157 0-15.085938l32.0625-32.066406-32.082032-32.046875c-4.15625-4.160156-4.15625-10.910156 0-15.089844 4.160156-4.15625 10.914063-4.15625 15.089844 0l32.0625 32.066406 32.066406-32.066406c4.160156-4.15625 10.910156-4.15625 15.085938 0 4.160156 4.160156 4.160156 10.914063 0 15.089844l-32.0625 32.0625zm0 0" fill="#fc573b"/></svg>