<svg height="512pt" viewBox="0 0 512 512" width="512pt" xmlns="http://www.w3.org/2000/svg"><path d="m416 512h-320c-53.023438 0-96-42.976562-96-96v-320c0-53.023438 42.976562-96 96-96h320c53.023438 0 96 42.976562 96 96v320c0 53.007812-42.992188 96-96 96zm0 0" fill="#e3f8fa"/><path d="m170.097656 244.65625c4.734375 0 8.878906-3.070312 10.285156-7.632812l17.152344-57.199219c2.898438-9.136719 11.089844-15.183594 20.464844-15.183594 9.359375 0 17.566406 6.03125 20.398438 15.023437l43.570312 145.007813 27.296875-61.121094c5.101563-11.472656 16.589844-18.910156 29.261719-18.910156h44.257812c-5.441406-65.570313-60.480468-117.3125-127.457031-117.3125s-122.015625 51.742187-127.457031 117.328125zm0 0" fill="#8ce1eb"/><path d="m338.527344 266c-4.253906 0-8.078125 2.464844-9.773438 6.257812l-27.3125 61.132813c-3.265625 7.617187-10.929687 12.609375-19.441406 12.609375-9.359375 0-17.566406-6.03125-20.398438-15.023438l-43.570312-145.007812-17.214844 57.277344c-4.222656 13.648437-16.542968 22.753906-30.703125 22.753906h-42.242187c5.441406 65.585938 60.480468 117.328125 127.457031 117.328125s122.015625-51.742187 127.457031-117.328125zm0 0" fill="#26c6da"/></svg>