<svg height="512pt" viewBox="0 0 512 512" width="512pt" xmlns="http://www.w3.org/2000/svg"><path d="m416 512h-320c-53.023438 0-96-42.976562-96-96v-320c0-53.023438 42.976562-96 96-96h320c53.023438 0 96 42.976562 96 96v320c0 53.023438-42.976562 96-96 96zm0 0" fill="#ffe6e2"/><path d="m364.910156 198.976562-51.550781-51.535156c-5.535156-5.554687-12.894531-8.59375-20.734375-8.59375h-72.914062c-7.839844 0-15.214844 3.054688-20.734376 8.59375l-51.550781 51.550782c-5.539062 5.535156-8.59375 12.910156-8.59375 20.734374v72.914063c0 7.839844 3.054688 15.199219 8.59375 20.734375l51.550781 51.554688c5.535157 5.535156 12.910157 8.589843 20.734376 8.589843h72.914062c7.839844 0 15.199219-3.054687 20.734375-8.589843l51.550781-51.554688c5.539063-5.535156 8.578125-12.894531 8.578125-20.734375v-72.914063c0-7.855468-3.054687-15.214843-8.578125-20.75zm-61.726562 89.136719c4.160156 4.160157 4.160156 10.925781 0 15.085938-2.078125 2.082031-4.816406 3.121093-7.535156 3.121093s-5.457032-1.039062-7.535157-3.121093l-32.050781-32.0625-32.0625 32.0625c-2.078125 2.082031-4.816406 3.121093-7.535156 3.121093-2.738282 0-5.457032-1.039062-7.535156-3.121093-4.160157-4.160157-4.160157-10.910157 0-15.085938l32.046874-32.066406-32.066406-32.046875c-4.15625-4.160156-4.15625-10.929688 0-15.089844 4.160156-4.15625 10.914063-4.15625 15.089844 0l32.046875 32.066406 32.050781-32.066406c4.160156-4.15625 10.910156-4.15625 15.085938 0 4.160156 4.160156 4.160156 10.914063 0 15.089844l-32.046875 32.0625zm0 0" fill="#fc573b"/></svg>