<svg height="512pt" viewBox="0 0 512 512" width="512pt" xmlns="http://www.w3.org/2000/svg"><path d="m416 512h-320c-53.023438 0-96-42.976562-96-96v-320c0-53.023438 42.976562-96 96-96h320c53.023438 0 96 42.976562 96 96v320c0 53.023438-42.976562 96-96 96zm0 0" fill="#ffe6e2"/><path d="m352 384h-192c-17.648438 0-32-14.351562-32-32v-85.328125c0-5.902344 4.769531-10.671875 10.671875-10.671875 5.886719 0 10.671875 4.769531 10.671875 10.671875v85.328125c0 5.886719 4.785156 10.671875 10.671875 10.671875h192c5.886719 0 10.671875-4.785156 10.671875-10.671875v-149.328125c-.015625-5.886719-4.800781-10.671875-10.6875-10.671875h-32c-5.886719 0-10.671875-4.769531-10.671875-10.671875s4.769531-10.671875 10.671875-10.671875h32c17.648438 0 32 14.351562 32 32v149.34375c0 17.648438-14.351562 32-32 32zm0 0" fill="#fd907e"/><path d="m216 170.671875h-2.671875v-34.671875c0-3.265625-1.984375-6.191406-5.007813-7.425781-3.023437-1.230469-6.496093-.496094-8.753906 1.875l-69.328125 72c-2.992187 3.101562-2.992187 8 0 11.101562l69.328125 72c2.257813 2.351563 5.746094 3.105469 8.753906 1.875 3.023438-1.21875 5.007813-4.160156 5.007813-7.425781v-34.671875h12.671875c33.550781 0 63.710938 18.640625 78.703125 48.640625l.128906.269531c1.375 2.769531 4.175781 4.433594 7.152344 4.433594.609375 0 1.230469-.078125 1.839844-.222656 3.617187-.847657 6.175781-4.082031 6.175781-7.777344v-16c0-57.34375-46.65625-104-104-104zm0 0" fill="#fc573b"/></svg>