<svg height="512pt" viewBox="0 0 512 512" width="512pt" xmlns="http://www.w3.org/2000/svg"><path d="m416 512h-320c-53.023438 0-96-42.976562-96-96v-320c0-53.023438 42.976562-96 96-96h320c53.023438 0 96 42.976562 96 96v320c0 53.023438-42.976562 96-96 96zm0 0" fill="#f5e6fe"/><path d="m256 223.902344c-17.648438 0-32 14.355468-32 32 0 13.890625 8.945312 25.617187 21.328125 30.035156v87.292969c0 5.890625 4.785156 10.671875 10.671875 10.671875s10.671875-4.78125 10.671875-10.671875v-87.292969c12.382813-4.417969 21.328125-16.144531 21.328125-30.035156 0-17.644532-14.351562-32-32-32zm0 0" fill="#d9a4fc"/><g fill="#be63f9"><path d="m256 127.503906c-70.574219 0-128 57.425782-128 128 0 34.238282 13.34375 66.367188 37.550781 90.480469 4.191407 4.160156 10.945313 4.144531 15.089844-.03125 4.160156-4.175781 4.128906-10.929687-.03125-15.089844-20.175781-20.0625-31.28125-46.832031-31.28125-75.359375 0-58.816406 47.855469-106.671875 106.671875-106.671875s106.671875 47.855469 106.671875 106.671875c0 28.527344-11.105469 55.28125-31.28125 75.359375-4.175781 4.160157-4.191406 10.914063-.03125 15.089844 2.097656 2.09375 4.816406 3.136719 7.570313 3.136719 2.71875 0 5.4375-1.042969 7.519531-3.105469 24.207031-24.097656 37.550781-56.222656 37.550781-90.480469 0-70.574218-57.425781-128-128-128zm0 0"/><path d="m256 170.175781c-47.054688 0-85.328125 38.289063-85.328125 85.328125 0 22.832032 8.914063 44.238282 25.089844 60.304688 4.175781 4.128906 10.925781 4.113281 15.085937-.066406 4.144532-4.175782 4.113282-10.941407-.0625-15.085938-12.113281-12.015625-18.785156-28.046875-18.785156-45.152344 0-35.296875 28.703125-64 64-64s64 28.703125 64 64c0 17.105469-6.671875 33.136719-18.785156 45.152344-4.175782 4.144531-4.207032 10.910156-.0625 15.085938 2.09375 2.097656 4.832031 3.152343 7.566406 3.152343 2.722656 0 5.441406-1.023437 7.519531-3.085937 16.175781-16.066406 25.089844-37.472656 25.089844-60.304688 0-47.039062-38.273437-85.328125-85.328125-85.328125zm0 0"/></g></svg>