<svg height="512pt" viewBox="0 0 512 512" width="512pt" xmlns="http://www.w3.org/2000/svg"><path d="m416 512h-320c-53.023438 0-96-42.976562-96-96v-320c0-53.023438 42.976562-96 96-96h320c53.023438 0 96 42.976562 96 96v320c0 53.023438-42.976562 96-96 96zm0 0" fill="#f5e6fe"/><path d="m308.527344 185.425781c-1.664063 3.980469-5.550782 6.574219-9.855469 6.574219h-32v106.671875c0 5.886719-4.785156 10.671875-10.671875 10.671875s-10.671875-4.785156-10.671875-10.671875v-106.671875h-32c-4.320313 0-8.207031-2.59375-9.855469-6.574219-1.648437-3.984375-.738281-8.578125 2.320313-11.632812l42.671875-42.671875c4.160156-4.160156 10.910156-4.160156 15.085937 0l42.671875 42.671875c3.042969 3.054687 3.953125 7.632812 2.304688 11.632812zm0 0" fill="#be63f9"/><path d="m352 384h-192c-17.648438 0-32-14.351562-32-32v-42.671875c0-5.886719 4.785156-10.671875 10.671875-10.671875s10.671875 4.785156 10.671875 10.671875v42.671875c0 5.886719 4.785156 10.671875 10.671875 10.671875h192c5.886719 0 10.671875-4.785156 10.671875-10.671875v-42.671875c0-5.886719 4.785156-10.671875 10.671875-10.671875s10.640625 4.785156 10.640625 10.671875v42.671875c0 17.648438-14.351562 32-32 32zm0 0" fill="#d9a4fc"/></svg>